<svg version="1.0" xmlns="http://www.w3.org/2000/svg" width="800" height="800" viewBox="0 0 800 800" preserveAspectRatio="xMidYMid meet">
  <g transform="translate(0,800) scale(0.1,-0.1)" fill="#000000" stroke="none">
    <path d="M2128 6126 c-82 -30 -129 -82 -198 -221 -64 -127 -81 -200 -87 -361 -5 -121 -2 -152 16 -225 67 -270 279 -486 542 -554 35 -9 65 -18 67 -20 2 -1 14 -55 27 -119 94 -452 316 -780 671 -993 53 -31 100 -66 105 -77 5 -12 33 -115 64 -231 30 -115 68 -259 85 -320 16 -60 32 -126 35 -145 l6 -35 -93 -47 c-188 -96 -330 -259 -374 -428 -34 -134 10 -240 121 -291 38 -17 83 -19 775 -19 492 0 748 4 774 11 81 23 156 125 156 214 0 45 -27 129 -66 208 -62 122 -215 260 -378 338 -32 16 -45 28 -41 39 6 19 150 537 178 644 14 51 29 84 42 92 11 8 70 46 130 86 189 123 376 331 477 532 54 106 100 237 138 390 l36 150 60 16 c250 72 422 219 515 440 50 118 62 189 56 340 -6 163 -21 220 -92 366 -67 135 -122 196 -199 220 -103 33 -163 1 -250 -131 -33 -50 -102 -132 -153 -184 l-92 -93 -51 42 c-65 55 -145 147 -208 241 -62 92 -88 114 -152 128 -99 21 -173 -22 -255 -149 -107 -164 -159 -383 -135 -561 26 -188 95 -327 230 -460 95 -93 211 -162 327 -195 l61 -17 -29 -108 c-64 -246 -169 -433 -321 -574 l-53 -50 -7 75 c-10 115 -44 204 -131 345 -68 110 -281 429 -329 491 -68 91 -204 142 -304 115 -87 -23 -125 -61 -242 -239 -301 -461 -341 -539 -366 -714 l-11 -79 -59 52 c-148 133 -274 374 -320 617 l-14 72 72 21 c272 81 468 295 527 574 40 193 14 374 -81 565 -79 158 -155 224 -260 224 -80 1 -113 -23 -190 -135 -118 -174 -223 -280 -261 -263 -39 18 -161 151 -231 252 -76 110 -109 136 -185 147 -21 3 -54 -1 -75 -9z m202 -584 c67 -65 165 -137 213 -157 121 -50 262 17 446 210 80 86 80 86 88 58 4 -15 8 -82 8 -148 0 -115 -1 -123 -32 -185 -115 -234 -417 -322 -664 -194 -18 9 -59 41 -90 71 -105 100 -148 244 -119 399 7 38 15 73 18 78 3 5 21 -11 41 -35 19 -24 60 -68 91 -97z m2639 -80 c44 -33 100 -67 125 -77 58 -22 135 -17 198 15 68 33 206 148 266 220 32 38 54 57 57 48 14 -39 25 -110 25 -163 0 -340 -362 -543 -687 -385 -194 95 -286 308 -222 518 l12 43 74 -80 c41 -44 109 -107 152 -139z m-1004 -880 c119 -173 229 -348 256 -408 36 -79 53 -179 46 -268 -3 -39 -28 -152 -55 -251 -27 -99 -85 -309 -128 -467 l-79 -288 -106 0 -106 0 -47 178 c-26 97 -72 267 -101 378 -100 369 -107 406 -102 524 6 140 20 174 179 427 144 231 166 263 176 263 4 0 34 -40 67 -88z m160 -2037 c88 -22 214 -88 260 -134 l39 -41 -529 0 -529 0 32 33 c70 72 218 138 349 156 92 13 304 5 378 -14z"/>
  </g>
</svg>
